<svg width="800" height="800" viewBox="0 0 800 800" fill="none" xmlns="http://www.w3.org/2000/svg">
<g clip-path="url(#clip0_2334_57)">
<path d="M402 100C154.95 100 102 152.95 102 400C102 647.05 154.95 700 402 700C649.05 700 702 647.05 702 400" stroke="#BC8CF2" stroke-width="66.6667" stroke-linecap="round"/>
<path d="M236.529 573.156C231.953 568.58 216.601 537.832 370.704 382.068C383.049 369.579 400.907 351.577 420.691 333.049C425.433 328.607 433.07 329.902 436.786 335.233C446.029 348.491 458.044 359.794 472.443 368.872C477.897 372.311 479.409 379.821 475.16 384.671C461.584 400.169 445.555 417.427 426.205 436.985C275.971 588.799 243.062 579.604 236.529 573.156Z" fill="#93B3F3"/>
<path d="M457.358 310.061C455.173 306.156 456.308 301.312 459.765 298.471C487.975 275.29 515.444 257.261 533.044 257.338C537.496 257.38 540.616 258.669 543.694 261.832C543.895 262.032 557.642 278.36 508.156 344.382C505.386 348.079 500.384 349.363 496.304 347.196C479.229 338.127 466.027 325.553 457.358 310.061Z" fill="white"/>
<path d="M593.202 128.366C616.751 113.803 658.268 108.394 694.134 115.302L713.314 118.753C718.555 119.7 720.45 125.885 717.023 129.961C692.464 159.164 672.93 195.539 672.668 196.18L669.421 202.92C663.348 215.651 655.65 231.751 646.164 241.236C642.462 244.938 638.551 247.601 634.308 248.683C612.008 254.342 591.121 240.528 577.519 228.008L577.477 227.965C549.477 202.128 549.435 189.107 552.184 175.96C554.18 166.308 560.502 155.99 570.238 146.255C576.559 139.93 584.341 133.815 593.202 128.366Z" fill="#F4C04F"/>
</g>
<defs>
<clipPath id="clip0_2334_57">
<rect width="800" height="800" fill="white"/>
</clipPath>
</defs>
</svg>
