<svg width="800" height="800" viewBox="0 0 800 800" fill="none" xmlns="http://www.w3.org/2000/svg">
<path d="M400 100C152.95 100 100 152.95 100 400C100 647.05 152.95 700 400 700C647.05 700 700 647.05 700 400" stroke="#BC8CF2" stroke-width="66.6667" stroke-linecap="round"/>
<path d="M582 120.722C631.944 138.265 662.202 168.765 679.554 219" stroke="#BC8CF2" stroke-width="66.67" stroke-linecap="round"/>
<path d="M212.9 224.67C216.187 223.31 219.587 221.78 223.1 220.08C226.727 218.267 230.24 216.34 233.64 214.3C237.04 212.147 240.27 209.937 243.33 207.67C246.503 205.29 249.337 202.797 251.83 200.19H269.51V318H244.18V233.17C240.78 235.437 236.983 237.533 232.79 239.46C228.597 241.273 224.517 242.86 220.55 244.22L212.9 224.67ZM442.841 258.84C442.841 278.673 439.044 293.917 431.451 304.57C423.971 315.11 413.601 320.38 400.341 320.38C387.081 320.38 376.654 315.11 369.061 304.57C361.581 293.917 357.841 278.673 357.841 258.84C357.841 248.98 358.804 240.253 360.731 232.66C362.771 225.067 365.661 218.663 369.401 213.45C373.141 208.237 377.618 204.27 382.831 201.55C388.044 198.83 393.881 197.47 400.341 197.47C413.601 197.47 423.971 202.797 431.451 213.45C439.044 223.99 442.841 239.12 442.841 258.84ZM417.001 258.84C417.001 252.947 416.718 247.62 416.151 242.86C415.584 237.987 414.678 233.793 413.431 230.28C412.184 226.767 410.484 224.047 408.331 222.12C406.178 220.193 403.514 219.23 400.341 219.23C397.168 219.23 394.504 220.193 392.351 222.12C390.311 224.047 388.611 226.767 387.251 230.28C386.004 233.793 385.098 237.987 384.531 242.86C383.964 247.62 383.681 252.947 383.681 258.84C383.681 264.733 383.964 270.117 384.531 274.99C385.098 279.863 386.004 284.057 387.251 287.57C388.611 291.083 390.311 293.803 392.351 295.73C394.504 297.657 397.168 298.62 400.341 298.62C403.514 298.62 406.178 297.657 408.331 295.73C410.484 293.803 412.184 291.083 413.431 287.57C414.678 284.057 415.584 279.863 416.151 274.99C416.718 270.117 417.001 264.733 417.001 258.84ZM515.022 224.67C518.309 223.31 521.709 221.78 525.222 220.08C528.849 218.267 532.362 216.34 535.762 214.3C539.162 212.147 542.392 209.937 545.452 207.67C548.625 205.29 551.459 202.797 553.952 200.19H571.632V318H546.302V233.17C542.902 235.437 539.105 237.533 534.912 239.46C530.719 241.273 526.639 242.86 522.672 244.22L515.022 224.67ZM291.78 403.84C291.78 423.673 287.983 438.917 280.39 449.57C272.91 460.11 262.54 465.38 249.28 465.38C236.02 465.38 225.593 460.11 218 449.57C210.52 438.917 206.78 423.673 206.78 403.84C206.78 393.98 207.743 385.253 209.67 377.66C211.71 370.067 214.6 363.663 218.34 358.45C222.08 353.237 226.557 349.27 231.77 346.55C236.983 343.83 242.82 342.47 249.28 342.47C262.54 342.47 272.91 347.797 280.39 358.45C287.983 368.99 291.78 384.12 291.78 403.84ZM265.94 403.84C265.94 397.947 265.657 392.62 265.09 387.86C264.523 382.987 263.617 378.793 262.37 375.28C261.123 371.767 259.423 369.047 257.27 367.12C255.117 365.193 252.453 364.23 249.28 364.23C246.107 364.23 243.443 365.193 241.29 367.12C239.25 369.047 237.55 371.767 236.19 375.28C234.943 378.793 234.037 382.987 233.47 387.86C232.903 392.62 232.62 397.947 232.62 403.84C232.62 409.733 232.903 415.117 233.47 419.99C234.037 424.863 234.943 429.057 236.19 432.57C237.55 436.083 239.25 438.803 241.29 440.73C243.443 442.657 246.107 443.62 249.28 443.62C252.453 443.62 255.117 442.657 257.27 440.73C259.423 438.803 261.123 436.083 262.37 432.57C263.617 429.057 264.523 424.863 265.09 419.99C265.657 415.117 265.94 409.733 265.94 403.84ZM363.961 369.67C367.248 368.31 370.648 366.78 374.161 365.08C377.788 363.267 381.301 361.34 384.701 359.3C388.101 357.147 391.331 354.937 394.391 352.67C397.564 350.29 400.398 347.797 402.891 345.19H420.571V463H395.241V378.17C391.841 380.437 388.044 382.533 383.851 384.46C379.658 386.273 375.578 387.86 371.611 389.22L363.961 369.67ZM593.902 403.84C593.902 423.673 590.105 438.917 582.512 449.57C575.032 460.11 564.662 465.38 551.402 465.38C538.142 465.38 527.715 460.11 520.122 449.57C512.642 438.917 508.902 423.673 508.902 403.84C508.902 393.98 509.865 385.253 511.792 377.66C513.832 370.067 516.722 363.663 520.462 358.45C524.202 353.237 528.679 349.27 533.892 346.55C539.105 343.83 544.942 342.47 551.402 342.47C564.662 342.47 575.032 347.797 582.512 358.45C590.105 368.99 593.902 384.12 593.902 403.84ZM568.062 403.84C568.062 397.947 567.779 392.62 567.212 387.86C566.645 382.987 565.739 378.793 564.492 375.28C563.245 371.767 561.545 369.047 559.392 367.12C557.239 365.193 554.575 364.23 551.402 364.23C548.229 364.23 545.565 365.193 543.412 367.12C541.372 369.047 539.672 371.767 538.312 375.28C537.065 378.793 536.159 382.987 535.592 387.86C535.025 392.62 534.742 397.947 534.742 403.84C534.742 409.733 535.025 415.117 535.592 419.99C536.159 424.863 537.065 429.057 538.312 432.57C539.672 436.083 541.372 438.803 543.412 440.73C545.565 442.657 548.229 443.62 551.402 443.62C554.575 443.62 557.239 442.657 559.392 440.73C561.545 438.803 563.245 436.083 564.492 432.57C565.739 429.057 566.645 424.863 567.212 419.99C567.779 415.117 568.062 409.733 568.062 403.84ZM212.9 514.67C216.187 513.31 219.587 511.78 223.1 510.08C226.727 508.267 230.24 506.34 233.64 504.3C237.04 502.147 240.27 499.937 243.33 497.67C246.503 495.29 249.337 492.797 251.83 490.19H269.51V608H244.18V523.17C240.78 525.437 236.983 527.533 232.79 529.46C228.597 531.273 224.517 532.86 220.55 534.22L212.9 514.67ZM363.961 514.67C367.248 513.31 370.648 511.78 374.161 510.08C377.788 508.267 381.301 506.34 384.701 504.3C388.101 502.147 391.331 499.937 394.391 497.67C397.564 495.29 400.398 492.797 402.891 490.19H420.571V608H395.241V523.17C391.841 525.437 388.044 527.533 383.851 529.46C379.658 531.273 375.578 532.86 371.611 534.22L363.961 514.67ZM593.902 548.84C593.902 568.673 590.105 583.917 582.512 594.57C575.032 605.11 564.662 610.38 551.402 610.38C538.142 610.38 527.715 605.11 520.122 594.57C512.642 583.917 508.902 568.673 508.902 548.84C508.902 538.98 509.865 530.253 511.792 522.66C513.832 515.067 516.722 508.663 520.462 503.45C524.202 498.237 528.679 494.27 533.892 491.55C539.105 488.83 544.942 487.47 551.402 487.47C564.662 487.47 575.032 492.797 582.512 503.45C590.105 513.99 593.902 529.12 593.902 548.84ZM568.062 548.84C568.062 542.947 567.779 537.62 567.212 532.86C566.645 527.987 565.739 523.793 564.492 520.28C563.245 516.767 561.545 514.047 559.392 512.12C557.239 510.193 554.575 509.23 551.402 509.23C548.229 509.23 545.565 510.193 543.412 512.12C541.372 514.047 539.672 516.767 538.312 520.28C537.065 523.793 536.159 527.987 535.592 532.86C535.025 537.62 534.742 542.947 534.742 548.84C534.742 554.733 535.025 560.117 535.592 564.99C536.159 569.863 537.065 574.057 538.312 577.57C539.672 581.083 541.372 583.803 543.412 585.73C545.565 587.657 548.229 588.62 551.402 588.62C554.575 588.62 557.239 587.657 559.392 585.73C561.545 583.803 563.245 581.083 564.492 577.57C565.739 574.057 566.645 569.863 567.212 564.99C567.779 560.117 568.062 554.733 568.062 548.84Z" fill="#91C799"/>
</svg>
