<svg width="800" height="800" viewBox="0 0 800 800" fill="none" xmlns="http://www.w3.org/2000/svg">
<path d="M237.436 400.009H337.406" stroke="#BC8CF2" stroke-width="56.6347" stroke-linecap="round"/>
<path d="M237.436 266.749H437.323" stroke="#BC8CF2" stroke-width="56.6347" stroke-linecap="round"/>
<path d="M697.013 529.432L631.91 463.246C625.31 456.532 614.603 456.532 608 463.246L482.786 590.542C479.163 594.229 477.38 599.386 477.936 604.569L485.096 671.086C485.53 675.092 488.64 678.256 492.58 678.692L558.006 685.972C563.103 686.539 568.176 684.726 571.803 681.042L697.013 553.742C703.616 547.029 703.616 536.146 697.013 529.432Z" stroke="#EC9650" stroke-width="56.6347" stroke-linecap="round"/>
<path d="M702 400C702 152.95 649.05 100 402 100C154.95 100 102 152.95 102 400C102 647.05 154.95 700 402 700" stroke="#BC8CF2" stroke-width="66.6667" stroke-linecap="round"/>
</svg>
