<svg width="33" height="33" viewBox="0 0 33 33" fill="none" xmlns="http://www.w3.org/2000/svg"><path d="M1.5 16.8059C1.5 13.3732 1.5 11.6569 2.2788 10.2341C3.0576 8.81132 4.48042 7.92826 7.32604 6.16219L10.326 4.3003C13.3341 2.43343 14.8381 1.5 16.5 1.5C18.1619 1.5 19.6659 2.43343 22.674 4.3003L25.674 6.16218C28.5196 7.92826 29.9424 8.81132 30.7212 10.2341C31.5 11.6569 31.5 13.3732 31.5 16.8059V19.0875C31.5 24.9387 31.5 27.8644 29.7426 29.6821C27.9853 31.5 25.1568 31.5 19.5 31.5H13.5C7.84314 31.5 5.01473 31.5 3.25736 29.6821C1.5 27.8644 1.5 24.9387 1.5 19.0875V16.8059Z" stroke="white" stroke-width="3"/></svg>