<svg width="21" height="32" viewBox="0 0 21 32" fill="none" xmlns="http://www.w3.org/2000/svg"><path d="M10.4668 14.5C14.0567 14.5 16.9668 11.5898 16.9668 8C16.9668 4.41015 14.0567 1.5 10.4668 1.5C6.87695 1.5 3.9668 4.41015 3.9668 8C3.9668 11.5898 6.87695 14.5 10.4668 14.5Z" stroke="white" stroke-width="3" stroke-linecap="round" stroke-linejoin="round"/><path d="M10.5078 19.2222C13.0168 19.2222 15.4445 19.8616 17.2256 21.0493C18.693 22.028 19.3794 23.2133 19.4678 24.3667L19.4775 24.5972C19.4733 25.742 18.8748 26.9333 17.5039 27.9526L17.2188 28.1548C15.4306 29.3549 12.9982 29.9994 10.4893 29.9995C7.97927 29.9995 5.54531 29.3548 3.75684 28.1538L3.75195 28.1509L3.46777 27.9517C2.09607 26.9419 1.5 25.7478 1.5 24.6147C1.50001 23.4059 2.1782 22.1143 3.7627 21.0513L3.76367 21.0522C5.56199 19.8616 7.99926 19.2222 10.5078 19.2222Z" stroke="white" stroke-width="3"/></svg>