<svg width="800" height="800" viewBox="0 0 800 800" fill="none" xmlns="http://www.w3.org/2000/svg">
<path d="M400 100C152.95 100 100 152.95 100 400C100 647.05 152.95 700 400 700C647.05 700 700 647.05 700 400" stroke="#BC8CF2" stroke-width="66.6667" stroke-linecap="round"/>
<path d="M241.47 303.62V237.88C237.923 240.413 233.87 242.693 229.31 244.72C224.75 246.62 220.887 248.14 217.72 249.28L210.12 229.9C213.16 228.76 216.453 227.303 220 225.53C223.547 223.757 227.093 221.793 230.64 219.64C234.187 217.487 237.543 215.207 240.71 212.8C243.877 210.393 246.6 207.923 248.88 205.39H264.84V303.62H288.21V323H216.77V303.62H241.47ZM441.35 263.91C441.35 284.683 437.867 300.137 430.9 310.27C423.933 320.403 413.8 325.47 400.5 325.47C387.2 325.47 377.067 320.403 370.1 310.27C363.133 300.137 359.65 284.683 359.65 263.91C359.65 243.39 363.197 228.063 370.29 217.93C377.383 207.797 387.453 202.73 400.5 202.73C413.8 202.73 423.933 207.797 430.9 217.93C437.867 227.937 441.35 243.263 441.35 263.91ZM420.26 263.91C420.26 250.483 418.55 240.287 415.13 233.32C411.837 226.227 406.96 222.68 400.5 222.68C394.167 222.68 389.29 226.227 385.87 233.32C382.45 240.287 380.74 250.483 380.74 263.91C380.74 277.463 382.45 287.787 385.87 294.88C389.29 301.847 394.167 305.33 400.5 305.33C406.96 305.33 411.837 301.847 415.13 294.88C418.55 287.787 420.26 277.463 420.26 263.91ZM411.14 262.01C411.14 265.43 410.127 268.407 408.1 270.94C406.2 273.347 403.73 274.55 400.69 274.55C397.397 274.55 394.8 273.347 392.9 270.94C391 268.407 390.05 265.43 390.05 262.01C390.05 258.59 391 255.613 392.9 253.08C394.8 250.547 397.397 249.28 400.69 249.28C403.73 249.28 406.2 250.547 408.1 253.08C410.127 255.613 411.14 258.59 411.14 262.01ZM545.47 303.62V237.88C541.923 240.413 537.87 242.693 533.31 244.72C528.75 246.62 524.887 248.14 521.72 249.28L514.12 229.9C517.16 228.76 520.453 227.303 524 225.53C527.547 223.757 531.093 221.793 534.64 219.64C538.187 217.487 541.543 215.207 544.71 212.8C547.877 210.393 550.6 207.923 552.88 205.39H568.84V303.62H592.21V323H520.77V303.62H545.47ZM289.35 403.91C289.35 424.683 285.867 440.137 278.9 450.27C271.933 460.403 261.8 465.47 248.5 465.47C235.2 465.47 225.067 460.403 218.1 450.27C211.133 440.137 207.65 424.683 207.65 403.91C207.65 383.39 211.197 368.063 218.29 357.93C225.383 347.797 235.453 342.73 248.5 342.73C261.8 342.73 271.933 347.797 278.9 357.93C285.867 367.937 289.35 383.263 289.35 403.91ZM268.26 403.91C268.26 390.483 266.55 380.287 263.13 373.32C259.837 366.227 254.96 362.68 248.5 362.68C242.167 362.68 237.29 366.227 233.87 373.32C230.45 380.287 228.74 390.483 228.74 403.91C228.74 417.463 230.45 427.787 233.87 434.88C237.29 441.847 242.167 445.33 248.5 445.33C254.96 445.33 259.837 441.847 263.13 434.88C266.55 427.787 268.26 417.463 268.26 403.91ZM259.14 402.01C259.14 405.43 258.127 408.407 256.1 410.94C254.2 413.347 251.73 414.55 248.69 414.55C245.397 414.55 242.8 413.347 240.9 410.94C239 408.407 238.05 405.43 238.05 402.01C238.05 398.59 239 395.613 240.9 393.08C242.8 390.547 245.397 389.28 248.69 389.28C251.73 389.28 254.2 390.547 256.1 393.08C258.127 395.613 259.14 398.59 259.14 402.01ZM393.47 443.62V377.88C389.923 380.413 385.87 382.693 381.31 384.72C376.75 386.62 372.887 388.14 369.72 389.28L362.12 369.9C365.16 368.76 368.453 367.303 372 365.53C375.547 363.757 379.093 361.793 382.64 359.64C386.187 357.487 389.543 355.207 392.71 352.8C395.877 350.393 398.6 347.923 400.88 345.39H416.84V443.62H440.21V463H368.77V443.62H393.47ZM593.35 403.91C593.35 424.683 589.867 440.137 582.9 450.27C575.933 460.403 565.8 465.47 552.5 465.47C539.2 465.47 529.067 460.403 522.1 450.27C515.133 440.137 511.65 424.683 511.65 403.91C511.65 383.39 515.197 368.063 522.29 357.93C529.383 347.797 539.453 342.73 552.5 342.73C565.8 342.73 575.933 347.797 582.9 357.93C589.867 367.937 593.35 383.263 593.35 403.91ZM572.26 403.91C572.26 390.483 570.55 380.287 567.13 373.32C563.837 366.227 558.96 362.68 552.5 362.68C546.167 362.68 541.29 366.227 537.87 373.32C534.45 380.287 532.74 390.483 532.74 403.91C532.74 417.463 534.45 427.787 537.87 434.88C541.29 441.847 546.167 445.33 552.5 445.33C558.96 445.33 563.837 441.847 567.13 434.88C570.55 427.787 572.26 417.463 572.26 403.91ZM563.14 402.01C563.14 405.43 562.127 408.407 560.1 410.94C558.2 413.347 555.73 414.55 552.69 414.55C549.397 414.55 546.8 413.347 544.9 410.94C543 408.407 542.05 405.43 542.05 402.01C542.05 398.59 543 395.613 544.9 393.08C546.8 390.547 549.397 389.28 552.69 389.28C555.73 389.28 558.2 390.547 560.1 393.08C562.127 395.613 563.14 398.59 563.14 402.01ZM241.47 583.62V517.88C237.923 520.413 233.87 522.693 229.31 524.72C224.75 526.62 220.887 528.14 217.72 529.28L210.12 509.9C213.16 508.76 216.453 507.303 220 505.53C223.547 503.757 227.093 501.793 230.64 499.64C234.187 497.487 237.543 495.207 240.71 492.8C243.877 490.393 246.6 487.923 248.88 485.39H264.84V583.62H288.21V603H216.77V583.62H241.47ZM393.47 583.62V517.88C389.923 520.413 385.87 522.693 381.31 524.72C376.75 526.62 372.887 528.14 369.72 529.28L362.12 509.9C365.16 508.76 368.453 507.303 372 505.53C375.547 503.757 379.093 501.793 382.64 499.64C386.187 497.487 389.543 495.207 392.71 492.8C395.877 490.393 398.6 487.923 400.88 485.39H416.84V583.62H440.21V603H368.77V583.62H393.47ZM593.35 543.91C593.35 564.683 589.867 580.137 582.9 590.27C575.933 600.403 565.8 605.47 552.5 605.47C539.2 605.47 529.067 600.403 522.1 590.27C515.133 580.137 511.65 564.683 511.65 543.91C511.65 523.39 515.197 508.063 522.29 497.93C529.383 487.797 539.453 482.73 552.5 482.73C565.8 482.73 575.933 487.797 582.9 497.93C589.867 507.937 593.35 523.263 593.35 543.91ZM572.26 543.91C572.26 530.483 570.55 520.287 567.13 513.32C563.837 506.227 558.96 502.68 552.5 502.68C546.167 502.68 541.29 506.227 537.87 513.32C534.45 520.287 532.74 530.483 532.74 543.91C532.74 557.463 534.45 567.787 537.87 574.88C541.29 581.847 546.167 585.33 552.5 585.33C558.96 585.33 563.837 581.847 567.13 574.88C570.55 567.787 572.26 557.463 572.26 543.91ZM563.14 542.01C563.14 545.43 562.127 548.407 560.1 550.94C558.2 553.347 555.73 554.55 552.69 554.55C549.397 554.55 546.8 553.347 544.9 550.94C543 548.407 542.05 545.43 542.05 542.01C542.05 538.59 543 535.613 544.9 533.08C546.8 530.547 549.397 529.28 552.69 529.28C555.73 529.28 558.2 530.547 560.1 533.08C562.127 535.613 563.14 538.59 563.14 542.01Z" fill="#91C799"/>
</svg>
